<svg width="14" height="16" viewBox="0 0 14 16" fill="none" xmlns="http://www.w3.org/2000/svg">
<path d="M11.6667 11.2527C11.0756 11.2527 10.5467 11.4925 10.1422 11.8681L4.59667 8.55141C4.63556 8.36759 4.66667 8.18378 4.66667 7.99197C4.66667 7.80016 4.63556 7.61635 4.59667 7.43253L10.08 4.14783C10.5 4.54743 11.0522 4.79518 11.6667 4.79518C12.9578 4.79518 14 3.72426 14 2.39759C14 1.07092 12.9578 0 11.6667 0C10.3756 0 9.33333 1.07092 9.33333 2.39759C9.33333 2.5894 9.36444 2.77321 9.40333 2.95703L3.92 6.24173C3.5 5.84213 2.94778 5.59438 2.33333 5.59438C1.04222 5.59438 0 6.6653 0 7.99197C0 9.31864 1.04222 10.3896 2.33333 10.3896C2.94778 10.3896 3.5 10.1418 3.92 9.74221L9.45778 13.0669C9.41889 13.2347 9.39556 13.4105 9.39556 13.5863C9.39556 14.8731 10.4144 15.92 11.6667 15.92C12.9189 15.92 13.9378 14.8731 13.9378 13.5863C13.9378 12.2996 12.9189 11.2527 11.6667 11.2527Z" fill="white"/>
</svg>
