<svg width="24" height="24" viewBox="0 0 24 24" fill="none" xmlns="http://www.w3.org/2000/svg">
<path d="M12 24C18.6274 24 24 18.6274 24 12C24 5.37258 18.6274 0 12 0C5.37258 0 0 5.37258 0 12C0 18.6274 5.37258 24 12 24Z" fill="#22C55E"/>
<path fill-rule="evenodd" clip-rule="evenodd" d="M12.3948 18.6766H12.3918C11.1976 18.6762 10.0241 18.3766 8.98189 17.8081L5.19922 18.8004L6.21153 15.1028C5.58709 14.0206 5.25851 12.7931 5.25904 11.5355C5.26061 7.60124 8.46163 4.40039 12.3947 4.40039C14.3035 4.40121 16.0951 5.14432 17.4423 6.4931C18.7895 7.8418 19.531 9.63456 19.5303 11.5411C19.5287 15.4745 16.329 18.675 12.3948 18.6766ZM9.15715 16.5163L9.37372 16.6449C10.2843 17.1852 11.3281 17.4711 12.3924 17.4716H12.3948C15.6636 17.4716 18.3242 14.811 18.3255 11.5407C18.3261 9.95599 17.7098 8.46593 16.5901 7.34488C15.4703 6.22384 13.9812 5.60616 12.3971 5.60561C9.12568 5.60561 6.46511 8.26594 6.46381 11.5359C6.46335 12.6566 6.7769 13.748 7.37059 14.6922L7.5116 14.9166L6.91246 17.1052L9.15715 16.5163ZM15.7454 13.0774C15.8698 13.1375 15.9537 13.1781 15.9896 13.238C16.0342 13.3123 16.0342 13.6693 15.8857 14.0858C15.737 14.5023 15.0247 14.8824 14.6822 14.9336C14.375 14.9795 13.9863 14.9986 13.5592 14.8629C13.3002 14.7807 12.9682 14.671 12.5428 14.4873C10.8713 13.7656 9.74173 12.1456 9.52825 11.8394C9.51329 11.818 9.50283 11.803 9.497 11.7952L9.49556 11.7932C9.4012 11.6673 8.76898 10.8238 8.76898 9.95078C8.76898 9.12951 9.1724 8.69904 9.35809 8.5009C9.37081 8.48732 9.38251 8.47484 9.39299 8.46339C9.55642 8.28489 9.74959 8.24027 9.86844 8.24027C9.98729 8.24027 10.1063 8.24137 10.2102 8.24658C10.223 8.24723 10.2363 8.24715 10.2501 8.24707C10.354 8.24646 10.4835 8.2457 10.6113 8.55264C10.6605 8.67077 10.7324 8.8459 10.8083 9.03061C10.9617 9.40411 11.1312 9.81678 11.161 9.87649C11.2056 9.96574 11.2353 10.0698 11.1759 10.1889C11.167 10.2067 11.1587 10.2236 11.1508 10.2397C11.1062 10.3308 11.0734 10.3978 10.9976 10.4863C10.9678 10.5211 10.937 10.5586 10.9062 10.5961C10.8449 10.6708 10.7836 10.7454 10.7301 10.7987C10.6409 10.8876 10.548 10.984 10.652 11.1625C10.756 11.341 11.1138 11.9248 11.6438 12.3976C12.2136 12.9058 12.7088 13.1206 12.9598 13.2295C13.0088 13.2508 13.0485 13.268 13.0777 13.2826C13.2559 13.3719 13.3599 13.3569 13.4639 13.238C13.5679 13.119 13.9096 12.7173 14.0284 12.5389C14.1473 12.3604 14.2662 12.3901 14.4296 12.4496C14.5931 12.5092 15.4696 12.9405 15.6479 13.0297C15.6827 13.0471 15.7153 13.0628 15.7454 13.0774Z" fill="#FDFDFD"/>
</svg>
