<svg width="40" height="40" viewBox="0 0 40 40" fill="none" xmlns="http://www.w3.org/2000/svg">
<path fill-rule="evenodd" clip-rule="evenodd" d="M0 20C0 8.9543 8.9543 0 20 0C31.0457 0 40 8.9543 40 20C40 31.0457 31.0457 40 20 40C8.9543 40 0 31.0457 0 20ZM14.1338 16.5648H9.60137V30.1829H14.1338V16.5648ZM14.4323 12.3524C14.4029 11.0171 13.4481 10.0001 11.8976 10.0001C10.347 10.0001 9.33336 11.0171 9.33336 12.3524C9.33336 13.6599 10.3171 14.7062 11.8387 14.7062H11.8677C13.4481 14.7062 14.4323 13.6599 14.4323 12.3524ZM30.4795 22.3749C30.4795 18.192 28.2435 16.2452 25.261 16.2452C22.8545 16.2452 21.7771 17.567 21.1756 18.4942V16.5654H16.6426C16.7023 17.8432 16.6426 30.1835 16.6426 30.1835H21.1756V22.578C21.1756 22.171 21.205 21.765 21.3248 21.4736C21.6524 20.6605 22.3982 19.8186 23.6504 19.8186C25.2912 19.8186 25.9471 21.0674 25.9471 22.8974V30.1831H30.4793L30.4795 22.3749Z" fill="#27c6d9"/>
</svg>
