<svg width="40" height="40" viewBox="0 0 40 40" fill="none" xmlns="http://www.w3.org/2000/svg">
<path d="M20 40C31.0457 40 40 31.0457 40 20C40 8.9543 31.0457 0 20 0C8.9543 0 0 8.9543 0 20C0 31.0457 8.9543 40 20 40Z" fill="#27C6D9"/>
<path d="M17.2168 16.6289V15.5373C16.8426 15.4861 16.4623 15.454 16.074 15.454C11.3986 15.454 7.59507 19.2576 7.59507 23.933C7.59507 26.8014 9.0288 29.3398 11.215 30.8749C9.80335 29.3599 8.9375 27.3302 8.9375 25.1018C8.9375 20.4936 12.6337 16.7352 17.2168 16.6279V16.6289Z" fill="#EBEBEB"/>
<path d="M17.4165 28.9756C19.5024 28.9756 21.204 27.3161 21.2812 25.2493L21.2883 6.7874H24.6614C24.5912 6.40815 24.553 6.01786 24.553 5.61854H19.9458L19.9388 24.0805C19.8615 26.1483 18.1599 27.8068 16.074 27.8068C15.4259 27.8068 14.8149 27.6442 14.2781 27.3623C14.9824 28.3375 16.1252 28.9766 17.4175 28.9766L17.4165 28.9756Z" fill="#EBEBEB"/>
<path d="M30.9622 13.0531V12.0267C29.6759 12.0267 28.477 11.6444 27.4717 10.9893C28.3666 12.0167 29.5826 12.7581 30.9622 13.0531Z" fill="#EBEBEB"/>
<path d="M27.4717 10.9883C26.4914 9.86255 25.8955 8.3927 25.8955 6.7864H24.6614C24.9865 8.54119 26.0279 10.0472 27.4717 10.9883Z" fill="#EBEBEB"/>
<path d="M16.074 20.0612C13.939 20.0612 12.2013 21.7979 12.2013 23.934C12.2013 25.4209 13.0451 26.7132 14.2771 27.3613C13.8176 26.7252 13.5437 25.9456 13.5437 25.1028C13.5437 22.9678 15.2814 21.2301 17.4165 21.2301C17.8148 21.2301 18.1971 21.2963 18.5592 21.4087V16.7061C18.185 16.655 17.8048 16.6229 17.4165 16.6229C17.3493 16.6229 17.283 16.6269 17.2158 16.6279V20.2398C16.8546 20.1264 16.4714 20.0612 16.073 20.0612H16.074Z" fill="#EBEBEB"/>
<path d="M30.9622 13.0531V16.6339C28.5733 16.6339 26.36 15.8694 24.553 14.5731V23.935C24.553 28.6104 20.7495 32.414 16.074 32.414C14.2671 32.414 12.5916 31.8441 11.215 30.8769C12.7641 32.5394 14.9704 33.5828 17.4175 33.5828C22.0929 33.5828 25.8965 29.7793 25.8965 25.1038V15.742C27.7034 17.0392 29.9167 17.8028 32.3056 17.8028V13.1955C31.8451 13.1955 31.3946 13.1454 30.9622 13.0531Z" fill="#EBEBEB"/>
</svg>
