<svg width="40" height="41" viewBox="0 0 40 41" fill="none" xmlns="http://www.w3.org/2000/svg">
<path fill-rule="evenodd" clip-rule="evenodd" d="M0 20.0297C0 8.9676 8.9543 0 20 0C31.0457 0 40 8.9676 40 20.0297C40 31.0918 31.0457 40.0594 20 40.0594C8.9543 40.0594 0 31.0918 0 20.0297ZM19.401 16.2804L19.443 16.9735L18.7435 16.8886C16.1974 16.5633 13.973 15.46 12.0844 13.6071L11.1611 12.6877L10.9233 13.3667C10.4197 14.8801 10.7414 16.4784 11.7907 17.5534C12.3502 18.1474 12.2243 18.2323 11.2591 17.8787C10.9233 17.7656 10.6295 17.6807 10.6016 17.7231C10.5036 17.8221 10.8394 19.1093 11.1052 19.6185C11.4689 20.3257 12.2104 21.0187 13.0218 21.4289L13.7072 21.7543L12.8958 21.7684C12.1124 21.7684 12.0844 21.7825 12.1684 22.0796C12.4482 22.999 13.5534 23.9749 14.7844 24.3992L15.6518 24.6963L14.8964 25.1489C13.7772 25.7995 12.4622 26.1673 11.1471 26.1956C10.5176 26.2097 10 26.2663 10 26.3087C10 26.4502 11.7067 27.2423 12.7 27.5534C15.6798 28.4728 19.2191 28.0768 21.8772 26.5068C23.7658 25.3894 25.6543 23.1687 26.5357 21.0187C27.0113 19.8731 27.487 17.7797 27.487 16.7754C27.487 16.1248 27.529 16.0399 28.3124 15.262C28.774 14.8094 29.2077 14.3143 29.2916 14.1729C29.4315 13.9041 29.4175 13.9041 28.7041 14.1446C27.515 14.5689 27.3471 14.5124 27.9346 13.8759C28.3683 13.4232 28.8859 12.6029 28.8859 12.3624C28.8859 12.32 28.6761 12.3907 28.4383 12.518C28.1865 12.6594 27.6269 12.8716 27.2072 12.9989L26.4518 13.2394L25.7663 12.7726C25.3885 12.518 24.8569 12.2351 24.5771 12.1502C23.8637 11.9522 22.7725 11.9805 22.129 12.2068C20.3803 12.8433 19.2751 14.4841 19.401 16.2804Z" fill="#27c6d9"/>
</svg>
